PathFileType  4	(X/Y/Z) C:\Users\antoi\Documents\MyRepositories\mobilecap\ResultsAnalysis
DataRate	CameraRate	NumFrames	NumMarkers	Units	OrigDataRate	OrigDataStartFrame	OrigNumFrames
100.0	100.0	4	51	mm	100.0	1038	1383
Frame#	Time	r_knee			r_shank_antsup			r_ankle			r_calc			r_5meta			r_toe			L_knee			L_shank_antsup			L_ankle			L_calc			L_5meta			L_toe			r_sh2			r_sh3			r_sh4			L_sh2			L_sh3			r_thigh1			r_thigh2			r_thigh3			r_thigh4			r_thigh5			L_thigh1			L_thigh2			L_thigh3			L_thigh4			r.ASIS			r.PSIS			L.ASIS			L.PSIS			C7			R_Shoulder			L_Shoulder			R_Sternum			L_Sternum			R_humerus			R_elbow_med			R_elbow_lat			R_forearm			R_wrist_radius			R_wrist_ulna			L_humerus			L_elbow_med			L_elbow_lat			L_forearm			L_wrist_radius			L_wrist_ulna			R_HJC			L_HJC			R_HJC_reg			L_HJC_reg			
		X1	Y1	Z1	X2	Y2	Z2	X3	Y3	Z3	X4	Y4	Z4	X5	Y5	Z5	X6	Y6	Z6	X7	Y7	Z7	X8	Y8	Z8	X9	Y9	Z9	X10	Y10	Z10	X11	Y11	Z11	X12	Y12	Z12	X13	Y13	Z13	X14	Y14	Z14	X15	Y15	Z15	X16	Y16	Z16	X17	Y17	Z17	X18	Y18	Z18	X19	Y19	Z19	X20	Y20	Z20	X21	Y21	Z21	X22	Y22	Z22	X23	Y23	Z23	X24	Y24	Z24	X25	Y25	Z25	X26	Y26	Z26	X27	Y27	Z27	X28	Y28	Z28	X29	Y29	Z29	X30	Y30	Z30	X31	Y31	Z31	X32	Y32	Z32	X33	Y33	Z33	X34	Y34	Z34	X35	Y35	Z35	X36	Y36	Z36	X37	Y37	Z37	X38	Y38	Z38	X39	Y39	Z39	X40	Y40	Z40	X41	Y41	Z41	X42	Y42	Z42	X43	Y43	Z43	X44	Y44	Z44	X45	Y45	Z45	X46	Y46	Z46	X47	Y47	Z47	X48	Y48	Z48	X49	Y49	Z49	X50	Y50	Z50	X51	Y51	Z51	

1038	10.37000000	-221.57588	447.26422	-442.29729	-201.16529	384.79997	-410.96963	-278.36405	93.74301	-431.04248	-344.03005	54.33372	-471.31747	-179.82816	49.39000	-392.98929	-132.75426	72.76901	-443.37600	-212.62900	440.97455	-821.12442	-169.32725	375.34667	-829.96299	-278.31636	92.92448	-808.99589	-349.71099	56.50589	-760.59978	-188.10601	44.90404	-837.10614	-138.52340	71.12254	-784.80374	-221.08698	276.14757	-401.12349	-272.19624	396.38792	-428.72392	-301.41841	283.53766	-423.41691	-253.60443	401.05708	-847.47567	-275.63222	280.57938	-848.89658	-489.41518	584.05026	-490.73347	-382.75710	564.56427	-466.09458	-373.94817	520.13116	-418.57677	-518.12315	504.55490	-414.50252	-405.91214	472.64741	-414.01597	-470.66906	564.86139	-797.68138	-335.21966	545.04683	-805.79293	-495.47375	454.35349	-827.12772	-353.36047	441.93528	-833.94115	-508.80370	586.89480	-494.07362	-676.76773	626.69594	-582.40790	-490.68877	569.65740	-751.38284	-672.67785	619.02947	-689.71484	-348.52424	990.62213	-616.97675	-319.29962	916.77663	-474.22411	-283.56635	921.30761	-759.83606	-279.27237	859.26741	-589.95523	-273.00253	859.69665	-633.22211	-300.38426	722.30611	-358.20658	-312.16177	600.69211	-390.01585	-298.01395	643.90069	-321.94730	-208.01379	697.28427	-370.47132	-127.95738	745.87889	-429.50699	-102.21711	708.80960	-424.75695	-259.27907	807.25448	-821.66573	-318.83030	592.15357	-839.65509	-302.25026	617.92259	-907.56699	-203.31827	660.71261	-867.97183	-114.75485	695.86658	-799.68019	-95.96213	664.06204	-804.42692	-581.62715	520.39394	-523.72339	-564.62765	509.83463	-723.01301	-577.70071	513.27888	-528.13924	-571.21820	501.12834	-698.21114	
1039	10.38000000	-223.39989	447.65270	-442.25086	-202.34495	385.08971	-411.09905	-278.56317	93.73816	-431.15568	-344.11803	54.28125	-471.30112	-179.88953	49.84680	-392.91890	-132.92818	73.05928	-443.56131	-214.42152	441.38593	-821.55790	-170.80081	375.83232	-830.08546	-278.35755	92.91444	-809.03518	-349.76172	56.54599	-760.71574	-188.13924	45.02209	-837.12870	-138.58436	71.24681	-784.80092	-221.97026	276.25237	-401.34950	-273.39181	396.41149	-428.81495	-302.16744	283.40309	-423.35495	-255.13083	401.16259	-847.67758	-276.65799	280.61232	-849.15526	-493.13234	580.92405	-491.09922	-386.21284	563.11247	-466.50320	-376.74466	519.11134	-418.66991	-520.43161	501.14824	-414.47948	-407.95301	470.92216	-413.84892	-474.36229	561.92775	-797.85491	-338.74184	544.03583	-805.97369	-497.50711	451.03959	-827.53550	-355.33704	440.50006	-833.97552	-512.39638	583.65528	-493.92614	-681.61890	620.48107	-582.50258	-493.38041	566.01694	-751.59724	-677.60579	612.61408	-689.73443	-361.48557	990.18168	-617.03244	-332.82838	916.65501	-475.31718	-294.11071	922.52075	-760.10769	-288.73822	860.37965	-590.33195	-282.49904	860.96744	-633.51184	-309.41514	722.83968	-357.85278	-320.36694	601.08159	-389.30825	-306.35739	644.49838	-321.49517	-217.24041	698.93851	-370.43194	-138.30396	748.50040	-430.06013	-112.14914	711.70269	-425.53090	-269.53899	808.15369	-822.25443	-329.63006	592.97578	-839.42238	-313.54809	618.54182	-907.30583	-215.01413	661.95322	-868.13253	-126.40143	699.43135	-801.50811	-107.30963	667.57814	-805.83144	-584.28440	515.87992	-523.57406	-566.99928	505.14417	-722.83063	-579.83494	508.72255	-527.71606	-573.46052	496.22427	-698.05921	
1040	10.39000000	-225.00747	448.03886	-442.04854	-203.61800	385.35903	-411.13934	-278.80120	93.74382	-431.21775	-344.19399	54.26087	-471.28740	-179.99312	50.29083	-392.80726	-133.14000	73.43532	-443.65768	-216.20154	441.83973	-822.15965	-172.15969	376.25652	-830.29969	-278.48655	92.90839	-809.11888	-349.82292	56.52539	-760.77701	-188.18600	45.09576	-837.07916	-138.67335	71.48221	-784.73131	-222.82755	276.46101	-401.40018	-274.74545	396.32488	-429.07787	-302.91463	283.24143	-423.03680	-256.66067	401.14725	-847.89415	-277.74100	280.56272	-849.19636	-496.58611	578.54834	-490.67986	-389.42324	561.99310	-466.44518	-379.35020	518.19548	-418.61274	-522.90321	498.44190	-413.70399	-409.91929	469.53579	-413.35722	-477.91014	559.14359	-798.06464	-342.02776	543.19052	-806.05919	-499.54120	447.94778	-828.05280	-357.23150	439.32504	-834.21449	-515.96585	580.64035	-493.76713	-686.42203	614.53096	-582.68682	-497.51577	563.13831	-751.94359	-682.53828	606.37597	-689.94113	-374.85183	989.69311	-617.31219	-345.70236	916.98864	-475.72472	-305.02277	924.00673	-760.60810	-298.32444	861.78865	-590.67271	-292.09477	862.46063	-633.68384	-318.89502	723.39629	-357.58162	-329.08143	601.49177	-388.44862	-315.13619	645.24685	-320.99011	-226.90471	700.67795	-370.28129	-148.95024	751.06169	-430.54979	-122.35892	714.45596	-426.30429	-280.27513	809.23782	-822.95909	-340.71580	594.10713	-838.77511	-325.19791	619.26118	-906.99232	-226.91304	663.42028	-868.45689	-138.36288	702.93229	-803.27819	-118.95678	671.08918	-807.33276	-587.02317	511.65068	-523.61906	-569.90935	500.93869	-722.89130	-582.49770	504.75933	-527.25392	-576.32032	491.78521	-697.87048	
1041	10.40000000	-226.46624	448.42662	-441.72383	-204.85897	385.66945	-410.78324	-279.06633	93.80402	-431.19058	-344.28057	54.26427	-471.28963	-180.15100	50.57339	-392.77745	-133.33596	73.89164	-443.65001	-218.04849	442.14240	-822.61093	-173.55625	376.73019	-830.73990	-278.70852	92.93703	-809.26560	-349.87897	56.45858	-760.80302	-188.24719	45.15556	-836.93190	-138.81352	71.80980	-784.64312	-223.60925	276.79703	-401.24562	-276.08405	396.29218	-429.01312	-303.78948	283.35396	-422.77106	-258.24782	401.17737	-848.25740	-278.89161	280.39927	-849.10328	-499.44551	576.89299	-490.05690	-392.12690	561.22155	-466.10091	-381.71595	517.58654	-418.39740	-525.31320	496.53006	-412.83522	-411.71350	468.64394	-412.75335	-481.01459	556.69568	-798.15244	-344.95098	542.56753	-806.32386	-501.51299	445.33683	-828.44156	-359.06595	438.54643	-834.60720	-519.44374	577.87333	-494.11337	-691.06695	609.09380	-582.96410	-502.17246	561.09606	-752.66763	-687.40670	600.57237	-690.33823	-388.48018	989.09436	-618.00763	-356.89225	918.30652	-475.17945	-316.12934	925.90545	-761.44895	-307.87281	863.53344	-590.97363	-301.61541	864.20818	-633.87565	-328.80009	724.07108	-357.12294	-338.18823	601.98930	-387.83305	-324.32397	646.14833	-320.50679	-236.96949	702.38818	-370.22288	-159.88635	753.56591	-430.98185	-132.87319	717.14037	-426.79845	-291.45310	810.54513	-823.79793	-352.00299	595.39077	-837.91406	-337.22455	620.12783	-906.61506	-238.98487	665.39527	-869.38967	-150.54056	706.19134	-804.87261	-130.92724	674.57248	-808.80026	-589.63744	507.76879	-524.12177	-573.02955	497.43783	-723.45510	-585.32877	501.59378	-527.20523	-579.50674	488.04457	-697.95723	
